<?xml version="1.0" standalone="no"?>
<!DOCTYPE svg PUBLIC "-//W3C//DTD SVG 20010904//EN"
 "http://www.w3.org/TR/2001/REC-SVG-20010904/DTD/svg10.dtd">
<svg version="1.0" xmlns="http://www.w3.org/2000/svg"
 width="675.000000pt" height="675.000000pt" viewBox="0 0 675.000000 675.000000"
 preserveAspectRatio="xMidYMid meet">
<metadata>
Created by potrace 1.11, written by Peter Selinger 2001-2013
</metadata>
<g transform="translate(0.000000,675.000000) scale(0.100000,-0.100000)"
fill="#000000" stroke="none">
<path d="M0 3375 l0 -3375 3375 0 3375 0 0 1589 0 1589 -71 -24 c-466 -158
-972 -110 -1394 130 -204 116 -422 316 -560 511 -404 574 -417 1356 -32 1944
55 84 101 142 202 259 32 38 173 156 260 218 170 122 412 225 648 276 87 19
134 22 322 22 242 0 331 -13 521 -74 50 -17 94 -30 98 -30 3 0 6 77 6 170 l0
170 -3375 0 -3375 0 0 -3375z m1410 2745 c0 -5 -4 -10 -10 -10 -5 0 -10 5 -10
10 0 6 5 10 10 10 6 0 10 -4 10 -10z m-471 -588 c83 -39 166 -167 201 -313 26
-110 29 -326 4 -336 -11 -4 -12 -8 -4 -13 7 -4 -18 -8 -56 -8 -38 0 -63 2 -56
5 6 2 9 9 6 15 -4 6 0 14 7 19 11 6 11 9 1 9 -9 0 -12 26 -11 103 0 56 -4 115
-10 130 -6 16 -11 39 -11 53 0 13 -4 24 -8 24 -4 0 -8 10 -9 21 -3 34 -61 123
-97 147 -50 34 -82 29 -126 -20 -60 -65 -90 -137 -111 -267 -10 -63 -17 -122
-14 -131 2 -8 7 -42 10 -75 2 -33 12 -85 20 -115 9 -30 16 -63 16 -73 0 -10 5
-15 11 -11 7 5 9 1 5 -9 -3 -9 0 -23 8 -31 8 -8 15 -19 15 -23 0 -21 61 -65
101 -74 56 -13 69 -25 69 -61 0 -49 -16 -68 -57 -68 -190 0 -323 232 -323 565
1 389 197 641 419 537z m1070 12 c142 -42 244 -246 258 -515 6 -109 5 -117
-15 -137 -14 -14 -17 -22 -9 -25 7 -2 -16 -5 -50 -6 l-63 -1 -2 122 c-3 187
-4 194 -29 242 -8 13 -7 16 0 11 15 -8 -25 70 -56 113 -27 36 -71 62 -104 62
-29 0 -99 -73 -127 -131 -32 -66 -61 -195 -61 -269 1 -74 22 -221 38 -263 6
-16 9 -32 6 -37 -8 -12 6 -41 16 -34 5 3 9 -2 9 -10 0 -8 7 -22 16 -30 8 -9
13 -16 10 -16 -3 0 6 -12 19 -26 16 -17 42 -30 72 -35 54 -10 63 -20 63 -69 0
-47 -15 -60 -65 -60 -185 0 -325 269 -312 600 12 308 138 517 318 529 8 1 39
-6 68 -15z m1207 1 c146 -45 254 -262 258 -519 1 -108 -9 -166 -29 -166 -8 0
-15 6 -16 13 0 10 -2 10 -6 0 -2 -8 -22 -13 -44 -13 l-39 0 0 91 c0 50 5 99
10 110 6 11 7 19 3 18 -18 -3 -27 2 -17 9 13 8 6 74 -7 66 -8 -4 -13 31 -12
73 1 7 -4 10 -10 6 -6 -4 -8 0 -4 10 3 10 3 17 -1 17 -5 0 -14 15 -20 34 -15
41 -94 116 -122 116 -26 0 -60 -17 -78 -39 -65 -79 -105 -180 -117 -294 -3
-32 -9 -65 -12 -74 -4 -9 -2 -14 3 -11 5 4 8 -12 6 -36 -2 -22 3 -77 11 -120
8 -44 13 -86 9 -94 -3 -10 -1 -13 6 -8 8 5 12 0 12 -13 0 -30 11 -52 23 -44 5
3 7 1 4 -5 -9 -14 3 -43 14 -36 5 3 9 2 9 -3 0 -31 87 -90 116 -79 18 7 44
-32 44 -66 0 -97 -164 -66 -254 48 -80 103 -126 269 -126 459 0 278 100 494
252 546 65 23 72 23 134 4z m940 -156 c-54 -179 -85 -394 -87 -591 -1 -105 -2
-111 -14 -81 -24 53 -38 162 -38 288 1 145 26 265 79 365 35 67 72 116 81 107
2 -3 -7 -43 -21 -88z m4 -1203 c0 -19 72 -208 109 -286 19 -40 31 -81 31 -107
0 -23 4 -45 10 -48 6 -3 10 1 10 9 0 30 15 15 70 -70 163 -255 372 -469 614
-630 35 -23 53 -41 49 -50 -4 -10 3 -14 21 -14 l26 0 -20 -41 c-12 -22 -19
-46 -17 -52 2 -7 14 8 27 33 12 25 24 46 25 48 2 2 47 -19 101 -46 272 -136
530 -200 854 -211 l195 -6 3 -105 c1 -57 7 -107 13 -110 9 -6 29 -671 54
-1822 7 -278 6 -308 -9 -308 -9 0 -18 -12 -22 -28 -3 -15 -7 -31 -8 -35 -1 -5
-1284 -9 -2851 -11 -1568 -1 -2863 -5 -2880 -9 -16 -3 -109 -11 -205 -17 -96
-5 -201 -13 -232 -16 l-58 -5 0 1976 0 1975 2045 0 c1721 0 2045 -2 2045 -14z"/>
<path d="M2132 5120 c0 -14 2 -19 5 -12 2 6 2 18 0 25 -3 6 -5 1 -5 -13z"/>
<path d="M2141 5044 c0 -11 3 -14 6 -6 3 7 2 16 -1 19 -3 4 -6 -2 -5 -13z"/>
<path d="M2146 4995 c-9 -26 -7 -32 5 -12 6 10 9 21 6 23 -2 3 -7 -2 -11 -11z"/>
<path d="M3358 4873 c7 -3 16 -2 19 1 4 3 -2 6 -13 5 -11 0 -14 -3 -6 -6z"/>
<path d="M3290 3889 c0 -28 -2 -31 -25 -25 -31 8 -65 -23 -65 -59 0 -32 36
-69 58 -59 9 3 25 6 35 6 15 -1 17 10 17 84 0 49 -4 84 -10 84 -5 0 -10 -14
-10 -31z m-12 -51 c25 -25 8 -78 -25 -78 -22 0 -37 44 -24 69 13 24 31 27 49
9z"/>
<path d="M3720 3835 c0 -50 4 -85 10 -85 6 0 10 20 10 45 0 32 5 47 15 51 25
10 45 -16 45 -57 0 -22 5 -39 10 -39 17 0 12 87 -6 104 -18 19 -20 19 -45 6
-17 -10 -19 -7 -19 25 0 19 -4 35 -10 35 -6 0 -10 -35 -10 -85z"/>
<path d="M746 3891 c-14 -15 -15 -24 -6 -40 6 -12 17 -21 24 -21 20 0 49 -37
43 -54 -3 -8 -23 -17 -44 -19 -34 -4 -33 -4 7 -3 43 1 45 3 48 32 3 27 -2 34
-32 52 -20 12 -36 25 -36 30 0 13 21 29 45 35 16 4 15 5 -6 6 -14 0 -34 -8
-43 -18z"/>
<path d="M1446 3879 c-9 -49 -7 -129 4 -129 6 0 10 26 10 57 0 64 9 62 35 -9
10 -27 21 -48 26 -48 4 0 18 28 31 63 l23 62 3 -55 c5 -91 23 -86 20 5 -4 99
-22 107 -52 23 -12 -32 -23 -58 -26 -58 -3 0 -13 27 -24 60 -20 66 -40 77 -50
29z"/>
<path d="M2145 3900 c3 -5 15 -10 26 -10 17 0 19 -7 19 -70 0 -40 4 -70 10
-70 6 0 10 30 10 70 0 68 1 70 25 70 14 0 25 5 25 10 0 6 -27 10 -61 10 -37 0
-58 -4 -54 -10z"/>
<path d="M2892 3830 c12 -45 26 -80 33 -80 6 0 20 28 30 63 l18 62 14 -62 c9
-37 20 -63 27 -63 7 0 22 33 34 74 25 85 25 86 12 86 -5 0 -14 -19 -20 -42
-21 -85 -26 -87 -41 -23 -8 32 -19 60 -25 62 -6 2 -19 -25 -29 -59 l-18 -63
-13 40 c-7 22 -13 50 -13 63 -1 12 -7 22 -15 22 -11 0 -10 -15 6 -80z"/>
<path d="M3580 3900 c0 -5 11 -10 25 -10 24 0 25 -2 25 -70 0 -40 4 -70 10
-70 6 0 10 30 10 70 0 68 1 70 25 70 14 0 25 5 25 10 0 6 -27 10 -60 10 -33 0
-60 -4 -60 -10z"/>
<path d="M1670 3863 c-23 -8 -40 -34 -40 -60 0 -26 32 -63 55 -63 22 0 65 45
65 67 -1 37 -45 68 -80 56z m45 -58 c0 -34 -3 -40 -22 -43 -16 -2 -26 4 -34
21 -15 33 4 69 34 65 18 -2 22 -10 22 -43z"/>
<path d="M1815 3861 c-11 -5 -25 -6 -30 -4 -7 2 -11 -17 -10 -52 0 -61 16 -71
20 -12 4 77 55 78 55 2 0 -25 5 -45 10 -45 17 0 15 86 -2 108 -12 14 -15 14
-43 3z"/>
<path d="M2420 3850 c-45 -45 -2 -129 53 -102 22 11 22 11 -3 11 -26 1 -50 17
-50 33 0 4 18 8 40 8 33 0 40 3 40 19 0 23 -25 51 -46 51 -8 0 -23 -9 -34 -20z
m58 -17 c2 -9 -7 -13 -27 -13 -23 0 -29 4 -24 16 6 17 44 15 51 -3z"/>
<path d="M3102 3854 c-53 -37 -6 -134 51 -106 l22 11 -22 0 c-63 2 -76 41 -13
41 33 0 40 3 40 19 0 17 -33 51 -50 51 -3 0 -16 -7 -28 -16z m56 -21 c2 -9 -7
-13 -27 -13 -30 0 -39 9 -24 24 11 10 46 3 51 -11z"/>
<path d="M3938 3864 c-5 -4 -8 -27 -8 -51 0 -31 -5 -45 -16 -50 -23 -9 -44 23
-44 64 0 18 -5 33 -11 33 -16 0 -5 -100 12 -111 12 -7 67 -3 77 6 2 2 2 28 0
60 -2 31 -6 53 -10 49z"/>
<path d="M862 3808 l3 -53 43 0 42 -1 -2 56 -1 55 -6 -44 c-7 -54 -34 -76 -57
-46 -9 12 -12 30 -9 46 4 16 1 30 -5 34 -8 5 -10 -9 -8 -47z"/>
<path d="M996 3850 c-6 -10 0 -89 7 -96 4 -4 7 9 7 29 0 48 9 67 30 67 24 0
29 -8 32 -54 1 -21 6 -40 10 -42 11 -7 10 77 -1 94 -7 12 -79 14 -85 2z"/>
<path d="M2270 3818 c0 -24 4 -48 8 -54 10 -16 49 -26 56 -15 4 6 13 8 21 4
12 -4 15 6 15 51 0 65 -17 76 -22 15 -2 -27 -9 -46 -21 -53 -23 -15 -37 6 -37
57 0 20 -4 37 -10 37 -5 0 -10 -19 -10 -42z"/>
<path d="M2230 3510 c-10 -6 -11 -10 -2 -10 8 0 12 -16 12 -44 0 -25 5 -48 10
-51 6 -4 10 17 10 54 0 62 -4 68 -30 51z"/>
<path d="M2920 3512 c0 -6 8 -8 19 -5 32 8 33 -24 1 -61 -17 -18 -30 -36 -30
-40 0 -3 16 -6 35 -6 19 0 35 5 35 10 0 6 -10 10 -22 10 l-21 0 22 24 c31 33
25 70 -11 74 -16 2 -28 -1 -28 -6z"/>
<path d="M3638 3510 c26 -11 28 -25 5 -39 -16 -9 -16 -10 -2 -11 22 0 31 -26
15 -39 -8 -6 -22 -8 -32 -5 -15 6 -17 4 -7 -6 7 -8 22 -10 37 -6 24 6 25 10
23 59 -2 50 -3 52 -32 54 -27 2 -28 2 -7 -7z"/>
<path d="M4367 3481 c-28 -42 -26 -51 10 -51 15 0 23 -6 23 -17 0 -13 4 -11
13 7 7 14 9 27 5 28 -4 2 -8 19 -8 38 0 44 -11 43 -43 -5z m33 -11 c0 -11 -7
-20 -15 -20 -18 0 -19 12 -3 28 16 16 18 15 18 -8z"/>
<path d="M830 3000 c-9 -6 -10 -10 -3 -10 7 0 13 -21 16 -52 l3 -53 2 63 c1
34 1 62 0 62 -2 0 -10 -5 -18 -10z"/>
<path d="M1515 2999 c-4 -6 -1 -10 6 -8 46 6 51 -15 14 -59 -14 -17 -25 -33
-25 -36 0 -3 17 -5 38 -5 28 2 31 3 10 6 l-27 4 24 36 c19 27 22 39 14 54 -11
21 -44 26 -54 8z"/>
<path d="M2214 2998 c-5 -7 -2 -9 9 -5 8 3 21 -1 27 -8 10 -12 8 -16 -11 -23
l-24 -9 23 -7 c30 -10 25 -38 -8 -47 l-25 -7 27 -1 c30 -1 52 26 39 48 -5 7
-6 22 -3 33 8 30 -38 52 -54 26z"/>
<path d="M2947 3004 c-3 -3 -3 -21 0 -40 4 -27 2 -34 -11 -34 -18 0 -22 15 -6
25 6 3 10 12 10 18 -1 14 -40 -30 -40 -44 0 -5 11 -9 24 -9 13 0 27 -8 31 -17
7 -17 7 -17 14 -1 3 10 5 38 3 63 -4 42 -11 53 -25 39z"/>
<path d="M3620 2996 c0 -8 -3 -21 -6 -29 -4 -11 2 -16 18 -19 32 -4 31 -40 -2
-49 l-25 -7 27 -1 c17 -1 31 6 38 18 13 26 3 51 -21 51 -10 0 -19 7 -19 15 0
8 9 15 20 15 11 0 20 5 20 10 0 6 -11 10 -25 10 -15 0 -25 -6 -25 -14z"/>
<path d="M4365 2985 c-28 -27 -31 -52 -12 -79 16 -21 45 -18 61 7 15 23 -4 52
-33 51 -29 -1 -27 14 4 26 26 10 33 20 15 20 -6 0 -22 -11 -35 -25z m39 -44
c8 -13 -20 -45 -32 -37 -20 12 -14 46 7 46 11 0 22 -4 25 -9z"/>
<path d="M814 2466 c-3 -8 -4 -20 -3 -27 1 -8 -2 -23 -6 -33 -6 -14 -3 -23 10
-32 10 -8 22 -14 25 -14 3 0 15 6 25 14 13 9 16 19 10 32 -4 10 -7 31 -6 47 2
23 -1 27 -24 27 -14 0 -28 -6 -31 -14z m46 -10 c0 -8 -4 -17 -8 -20 -13 -8
-35 11 -28 23 10 16 36 14 36 -3z m-2 -59 c2 -12 -3 -17 -17 -17 -12 0 -21 6
-21 13 0 31 32 34 38 4z"/>
<path d="M1512 2464 c-15 -27 -3 -54 24 -54 29 0 32 -20 4 -27 -11 -3 -20 -10
-20 -15 0 -10 16 -3 43 20 17 15 22 47 11 76 -8 21 -50 21 -62 0z m48 -19 c0
-25 -23 -35 -35 -15 -10 16 2 40 20 40 9 0 15 -9 15 -25z"/>
<path d="M2225 2470 c-3 -5 -2 -10 4 -10 5 0 12 -21 14 -47 3 -47 3 -47 5 10
2 52 -8 72 -23 47z"/>
<path d="M2307 2474 c-4 -4 -7 -27 -7 -50 0 -32 5 -46 19 -53 32 -18 53 8 49
59 -3 40 -6 45 -28 48 -14 2 -29 0 -33 -4z m49 -28 c8 -34 -4 -68 -24 -64 -19
4 -26 29 -18 64 8 31 34 31 42 0z"/>
<path d="M2900 2470 c-13 -8 -13 -10 2 -10 13 0 18 -11 21 -47 3 -47 3 -47 5
10 2 58 -2 64 -28 47z"/>
<path d="M2995 2470 c-3 -5 -2 -10 4 -10 5 0 12 -21 14 -47 3 -47 3 -47 5 10
2 52 -8 72 -23 47z"/>
<path d="M3615 2470 c-3 -5 -1 -10 4 -10 6 0 11 -20 11 -45 0 -25 5 -45 10
-45 6 0 10 25 10 55 0 41 -4 55 -14 55 -8 0 -18 -4 -21 -10z"/>
<path d="M3719 2472 c36 -11 36 -26 0 -66 l-31 -36 38 1 c23 1 30 3 17 6 l-23
4 21 28 c28 39 22 65 -16 68 -27 2 -28 1 -6 -5z"/>
<path d="M4335 2470 c-3 -5 -2 -10 4 -10 5 0 12 -21 14 -47 3 -47 3 -47 5 10
2 52 -8 72 -23 47z"/>
<path d="M4425 2473 c34 -8 41 -22 19 -38 -17 -13 -17 -14 -1 -15 10 0 17 -8
17 -20 0 -15 -7 -20 -27 -20 -24 -1 -25 -2 -11 -11 24 -13 58 5 58 31 0 11 -4
20 -10 20 -5 0 -7 13 -3 30 5 29 4 30 -28 29 -21 -1 -26 -3 -14 -6z"/>
<path d="M5050 2470 c0 -5 4 -10 9 -10 6 0 12 -21 14 -47 3 -47 3 -47 5 10 2
45 -1 57 -13 57 -8 0 -15 -4 -15 -10z"/>
<path d="M5146 2446 c-32 -43 -32 -46 -1 -46 16 0 25 -6 25 -15 0 -21 18 -19
22 2 5 27 -3 93 -12 93 -4 0 -19 -15 -34 -34z m24 -16 c0 -11 -7 -20 -15 -20
-18 0 -19 12 -3 28 16 16 18 15 18 -8z"/>
<path d="M897 1973 c-4 -3 -7 -17 -7 -29 0 -16 7 -24 23 -26 35 -5 29 -41 -8
-49 -22 -5 -24 -7 -8 -8 35 -2 53 10 53 35 0 17 -8 27 -26 34 -28 11 -24 30 7
30 11 0 17 5 14 10 -7 11 -38 13 -48 3z"/>
<path d="M1582 1960 c-37 -35 -25 -100 20 -100 21 0 40 32 32 54 -6 16 -17 20
-41 17 -21 -3 -15 20 7 26 11 3 20 9 20 14 0 15 -15 10 -38 -11z m36 -62 c-4
-27 -33 -36 -42 -13 -8 22 1 35 25 35 15 0 20 -6 17 -22z"/>
<path d="M2213 1973 c-7 -2 -13 -9 -13 -14 0 -6 4 -8 9 -4 6 3 12 -17 14 -47
l3 -53 2 63 c1 34 1 62 0 61 -2 0 -9 -3 -15 -6z"/>
<path d="M2285 1970 c-4 -6 5 -10 19 -10 31 0 31 0 5 -51 -11 -23 -18 -43 -15
-46 8 -8 57 97 51 107 -8 13 -52 13 -60 0z"/>
<path d="M2970 1965 c-7 -8 -9 -22 -6 -31 4 -9 1 -23 -5 -30 -17 -20 8 -46 40
-42 24 3 26 7 26 48 1 65 -25 91 -55 55z m38 -18 c2 -10 -3 -17 -12 -17 -18 0
-29 16 -21 31 9 14 29 6 33 -14z m10 -54 c5 -17 -26 -29 -40 -15 -6 6 -7 15
-3 22 9 14 37 9 43 -7z"/>
<path d="M3678 1955 c-14 -30 6 -59 34 -51 27 6 17 -16 -13 -31 -18 -10 -20
-13 -6 -13 23 0 57 35 57 61 0 56 -51 80 -72 34z m50 -18 c-2 -11 -9 -22 -15
-25 -16 -4 -27 22 -19 43 8 22 38 6 34 -18z"/>
<path d="M4310 1970 c-12 -8 -9 -10 13 -10 35 0 36 -28 2 -60 -34 -32 -31 -40
13 -39 35 1 35 2 8 8 -27 5 -28 7 -12 20 29 24 38 49 26 71 -12 22 -27 25 -50
10z"/>
<path d="M4402 1968 c-17 -17 -15 -83 3 -98 22 -19 52 -3 57 31 8 54 -30 97
-60 67z m48 -43 c0 -33 -10 -55 -25 -55 -25 0 -35 66 -13 88 16 16 38 -3 38
-33z"/>
<path d="M5025 1971 c-3 -5 5 -11 17 -13 33 -5 32 -22 -3 -62 l-31 -36 43 1
c31 2 35 3 16 6 l-27 4 20 26 c24 31 26 69 4 77 -22 8 -32 8 -39 -3z"/>
<path d="M805 1960 c-4 -6 -1 -9 6 -8 8 2 12 -12 11 -44 0 -27 4 -48 9 -48 5
0 9 25 9 55 0 41 -4 55 -14 55 -8 0 -18 -5 -21 -10z"/>
<path d="M1480 1959 c0 -5 5 -7 10 -4 6 4 10 -13 10 -44 0 -28 5 -51 10 -51 6
0 10 25 10 55 0 48 -2 55 -20 55 -11 0 -20 -5 -20 -11z"/>
<path d="M2880 1959 c0 -5 4 -8 9 -4 6 3 12 -17 14 -47 l3 -53 2 58 c2 45 -1
57 -13 57 -8 0 -15 -5 -15 -11z"/>
<path d="M3604 1954 c3 -9 6 -33 6 -55 0 -21 5 -39 10 -39 6 0 10 25 10 55 0
44 -3 55 -16 55 -11 0 -14 -5 -10 -16z"/>
<path d="M5120 1959 c0 -5 4 -8 9 -4 6 3 12 -17 14 -47 l3 -53 2 58 c2 45 -1
57 -13 57 -8 0 -15 -5 -15 -11z"/>
<path d="M800 1462 c0 -6 9 -8 20 -5 30 8 26 -38 -5 -67 -34 -32 -32 -40 10
-40 19 0 35 5 35 10 0 6 -9 10 -20 10 -20 0 -20 0 1 29 27 37 22 65 -14 69
-15 2 -27 -1 -27 -6z"/>
<path d="M890 1462 c0 -5 10 -8 22 -8 33 1 32 -25 -2 -62 -16 -18 -30 -35 -30
-38 0 -2 16 -4 35 -4 19 0 35 5 35 10 0 6 -10 10 -22 10 l-21 0 22 24 c31 33
25 70 -11 74 -16 2 -28 -1 -28 -6z"/>
<path d="M1476 1462 c-3 -5 5 -8 17 -8 32 1 33 -34 2 -64 -34 -32 -32 -40 10
-40 19 0 35 5 35 10 0 6 -9 10 -20 10 -20 0 -20 1 2 30 17 24 20 35 12 48 -12
19 -49 28 -58 14z"/>
<path d="M1588 1460 c26 -11 29 -28 7 -37 -13 -5 -13 -8 5 -20 17 -12 19 -18
9 -29 -7 -9 -20 -12 -32 -8 -13 4 -17 2 -13 -5 10 -15 41 -14 53 2 6 6 10 32
9 57 -1 43 -3 45 -31 47 -27 2 -28 2 -7 -7z"/>
<path d="M2195 1460 c-4 -6 3 -9 17 -7 32 3 34 -25 2 -62 -31 -37 -28 -44 18
-38 29 3 30 5 11 11 l-21 8 20 34 c16 28 18 37 8 49 -14 17 -46 20 -55 5z"/>
<path d="M2317 1464 c-3 -4 -3 -19 0 -35 4 -23 2 -29 -12 -29 -14 0 -15 3 -5
15 7 9 11 18 8 21 -3 2 -13 -7 -22 -20 -16 -26 -9 -40 17 -30 9 3 17 -3 22
-18 l7 -23 7 24 c3 13 5 41 3 62 -4 37 -11 47 -25 33z"/>
<path d="M2870 1462 c0 -5 10 -8 22 -8 32 1 33 -26 3 -62 -32 -38 -32 -42 5
-42 17 0 30 5 30 10 0 6 -10 10 -22 10 l-21 0 22 24 c31 33 25 70 -11 74 -16
2 -28 -1 -28 -6z"/>
<path d="M2966 1454 c-10 -27 -7 -34 19 -44 42 -16 28 -48 -17 -41 -5 0 -8 -3
-8 -9 0 -16 37 -12 54 6 9 8 16 19 16 24 0 11 -29 40 -41 40 -19 0 -8 29 14
33 20 4 19 4 -4 6 -16 0 -29 -5 -33 -15z"/>
<path d="M3590 1461 c0 -5 8 -8 17 -7 28 2 27 -37 -2 -64 -34 -32 -32 -40 10
-40 19 0 35 5 35 10 0 6 -9 10 -20 10 -20 0 -20 0 1 29 27 36 19 71 -17 71
-13 0 -24 -4 -24 -9z"/>
<path d="M3690 1450 c-22 -22 -27 -69 -8 -88 20 -20 48 -14 60 13 13 30 -5 59
-34 52 -28 -8 -21 10 10 27 19 11 22 15 10 16 -10 0 -27 -9 -38 -20z m35 -60
c0 -27 -22 -39 -31 -16 -8 22 3 49 19 43 6 -2 12 -14 12 -27z"/>
<path d="M4306 1462 c-3 -5 5 -8 17 -8 31 1 32 -26 1 -63 -31 -37 -28 -44 18
-38 29 3 30 5 11 11 l-21 8 20 34 c16 28 18 37 8 49 -13 16 -46 20 -54 7z"/>
<path d="M4413 1463 c32 -5 33 -12 6 -64 -11 -23 -18 -43 -15 -46 5 -6 56 90
56 107 0 5 -17 9 -37 9 -31 -2 -33 -3 -10 -6z"/>
<path d="M5020 1462 c0 -6 8 -8 19 -5 31 8 34 -26 6 -63 -32 -41 -31 -44 5
-44 17 0 30 5 30 10 0 6 -10 10 -22 10 l-21 0 22 24 c31 33 25 70 -11 74 -16
2 -28 -1 -28 -6z"/>
<path d="M5114 1455 c-3 -8 -4 -20 -1 -27 2 -7 0 -21 -5 -31 -19 -37 35 -64
63 -31 10 12 10 20 2 34 -8 12 -9 20 -1 28 8 8 8 15 -2 27 -16 19 -49 20 -56
0z m42 -6 c10 -17 -13 -36 -27 -22 -12 12 -4 33 11 33 5 0 12 -5 16 -11z m1
-55 c8 -21 -13 -42 -28 -27 -13 13 -5 43 11 43 6 0 13 -7 17 -16z"/>
<path d="M800 972 c0 -6 9 -8 20 -5 30 8 26 -35 -7 -69 l-27 -28 40 1 c22 1
30 4 17 6 l-23 4 21 28 c27 37 22 65 -14 69 -15 2 -27 -1 -27 -6z"/>
<path d="M890 965 c-19 -23 -8 -50 23 -53 23 -3 26 -6 16 -18 -6 -8 -18 -14
-26 -14 -8 0 -11 -5 -8 -10 9 -15 44 7 57 36 23 49 -29 99 -62 59z m50 -20 c0
-18 -5 -25 -20 -25 -15 0 -20 7 -20 25 0 18 5 25 20 25 15 0 20 -7 20 -25z"/>
<path d="M1498 970 c27 -11 28 -19 5 -36 -17 -13 -17 -13 0 -14 10 0 17 -8 17
-20 0 -15 -7 -20 -27 -20 -21 0 -24 -3 -15 -12 9 -9 18 -9 37 0 27 13 32 31
13 50 -9 9 -9 15 -1 23 18 18 3 39 -26 38 -25 0 -25 0 -3 -9z"/>
<path d="M1572 968 c-17 -17 -15 -74 4 -93 21 -20 36 -15 52 19 25 51 -19 111
-56 74z m43 -44 c0 -28 -5 -40 -16 -42 -21 -4 -33 41 -19 69 17 31 35 17 35
-27z"/>
<path d="M2200 974 c8 -3 22 -8 30 -11 12 -4 11 -8 -7 -23 -22 -17 -22 -18 -3
-23 31 -8 25 -37 -7 -37 -20 0 -24 -3 -16 -11 24 -24 74 16 56 44 -5 7 -8 23
-8 37 0 21 -5 25 -30 27 -16 1 -23 0 -15 -3z"/>
<path d="M2295 971 c-3 -6 -1 -11 4 -11 6 0 11 -20 11 -45 0 -25 4 -45 10 -45
13 0 7 103 -7 107 -6 2 -14 -1 -18 -6z"/>
<path d="M2875 970 c-3 -5 -1 -10 4 -10 6 0 11 -20 11 -45 0 -25 5 -45 10 -45
6 0 10 25 10 55 0 41 -4 55 -14 55 -8 0 -18 -4 -21 -10z"/>
<path d="M3600 971 c0 -4 11 -6 25 -3 20 3 25 0 25 -16 0 -11 -11 -34 -25 -50
-32 -38 -32 -41 6 -37 37 5 51 15 21 15 l-21 0 20 34 c24 42 16 66 -22 66 -16
0 -29 -4 -29 -9z"/>
<path d="M4315 973 c33 -8 41 -22 21 -36 -17 -12 -17 -14 -2 -20 27 -11 19
-37 -11 -37 -24 -1 -25 -2 -11 -11 33 -18 80 26 48 46 -5 3 -7 19 -3 35 5 29
4 30 -28 29 -21 -1 -26 -3 -14 -6z"/>
<path d="M5021 946 c-27 -43 -26 -48 7 -44 23 3 27 8 30 41 4 46 -10 47 -37 3z
m29 -11 c0 -16 -6 -25 -15 -25 -18 0 -19 4 -3 30 16 26 18 25 18 -5z"/>
<path d="M6120 6219 c0 -109 2 -120 18 -117 15 3 17 18 20 121 3 112 2 117
-18 117 -19 0 -20 -6 -20 -121z"/>
<path d="M6650 6086 c-5 -14 -14 -37 -20 -51 -5 -14 -6 -25 -1 -25 12 0 46 88
38 97 -4 3 -11 -6 -17 -21z"/>
<path d="M5580 6093 c0 -18 34 -93 41 -93 12 0 12 1 -11 54 -19 42 -30 57 -30
39z"/>
<path d="M5060 5856 c0 -13 141 -158 160 -164 6 -2 13 3 16 12 4 11 -17 40
-67 91 -68 70 -109 93 -109 61z"/>
<path d="M6385 5624 c-23 -54 -173 -472 -226 -628 l-44 -129 -170 -84 c-93
-46 -180 -95 -192 -109 -63 -70 13 -199 106 -181 16 3 57 24 92 46 l63 40 14
-28 c7 -16 24 -33 38 -40 67 -30 105 3 129 115 l17 80 86 54 c47 30 167 107
266 171 l181 117 3 61 c2 33 0 61 -3 61 -3 0 -72 -32 -153 -71 -286 -138 -313
-151 -318 -146 -3 3 18 113 46 245 60 287 91 454 86 460 -3 2 -12 -13 -21 -34z"/>
<path d="M4855 5305 c55 -26 65 -29 65 -17 0 8 -88 43 -105 41 -5 0 13 -11 40
-24z"/>
<path d="M4592 4793 c3 -16 16 -18 118 -18 96 0 115 3 115 15 0 12 -21 16
-118 18 -109 2 -118 1 -115 -15z"/>
<path d="M4867 4267 c-27 -12 -46 -25 -42 -29 8 -8 95 32 95 44 0 10 5 11 -53
-15z"/>
<path d="M5131 3816 c-51 -51 -72 -79 -68 -90 4 -9 10 -16 14 -16 17 0 165
158 159 169 -14 21 -32 10 -105 -63z"/>
<path d="M5612 3530 c-11 -27 -17 -52 -12 -55 9 -5 45 93 37 101 -2 2 -13 -18
-25 -46z"/>
<path d="M6640 3576 c0 -16 43 -99 47 -89 4 11 -33 93 -42 93 -3 0 -5 -2 -5
-4z"/>
<path d="M6122 3363 c2 -97 6 -118 18 -118 12 0 16 21 18 118 3 112 2 117 -18
117 -20 0 -21 -5 -18 -117z"/>
</g>
</svg>
